{"title":"Die Bett-Hostessen (1973) DVDRip-AVC","uid":11746715,"size":1555668159,"categoryP":"video","categoryS":"movies","magnet":"?xt=urn:btih:50d7fc435eb834fa38b3fc057552240b14f0358b&amp;dn=Die+Bett-Hostessen+%281973%29+DVDRip-AVC&amp;tr=udp%3A%2F%2Ftracker.openbittorrent.com%3A80&amp;tr=udp%3A%2F%2Fopen.demonii.com%3A1337&amp;tr=udp%3A%2F%2Ftracker.coppersurfer.tk%3A6969&amp;tr=udp%3A%2F%2Fexodus.desync.com%3A6969","seeders":2,"leechers":0,"uploader":"yfjfrj","files":1,"time":1426064007,"description":"Die Bett-Hostessen (1973) DVDRip-AVC\n\nSource: &lt;a href=&quot; https://thepiratebay.se/torrent/11745124/Die_Bett-Hostessen_(1973)_DVD5_PAL_&quot; rel=&quot;nofollow&quot; target=&quot;_NEW&quot;&gt; https://thepiratebay.se/torrent/11745124/Die_Bett-Hostessen_(1973)_DVD5_PAL_&lt;/a&gt;\n\nLog h.264:\n[Information] [10.03.2015 10:24:09] Standard error stream\n-[Information] [10.03.2015 10:24:17] raw [info]: 680x440p 12:11 @ 25/1 fps (cfr)\n-[Information] [10.03.2015 10:24:17] x264 [info]: using SAR=12/11\n-[Information] [10.03.2015 10:24:18] x264 [info]: using cpu capabilities: MMX2 SSE2Fast SSSE3 SSE4.2 AVX\n-[Information] [10.03.2015 10:24:18] x264 [info]: profile High, level 4.1\n-[Information] [10.03.2015 15:47:58] x264 [info]: frame I:592   Avg QP:17.98  size: 49661\n-[Information] [10.03.2015 15:47:59] x264 [info]: frame P:22728 Avg QP:20.44  size: 24361\n-[Information] [10.03.2015 15:47:59] x264 [info]: frame B:91355 Avg QP:22.97  size:  8642\n-[Information] [10.03.2015 15:47:59] x264 [info]: consecutive B-frames:  1.1%  1.7%  4.3% 14.9% 13.7% 57.8%  4.0%  1.7%  0.8%\n-[Information] [10.03.2015 15:47:59] x264 [info]: mb I  I16..4:  3.1% 81.9% 15.0%\n-[Information] [10.03.2015 15:47:59] x264 [info]: mb P  I16..4:  1.2% 16.0%  2.0%  P16..4: 36.8% 27.8% 15.0%  0.4%  0.1%    skip: 0.7%\n-[Information] [10.03.2015 15:47:59] x264 [info]: mb B  I16..4:  0.2%  2.2%  0.2%  B16..8: 40.5% 18.8%  5.4%  direct:13.8%  skip:19.0%  L0:44.6% L1:38.1% BI:17.3%\n-[Information] [10.03.2015 15:47:59] x264 [info]: 8x8 transform intra:84.2% inter:71.9%\n-[Information] [10.03.2015 15:47:59] x264 [info]: direct mvs  spatial:96.4% temporal:3.6%\n-[Information] [10.03.2015 15:47:59] x264 [info]: coded y,uvDC,uvAC intra: 89.2% 95.9% 78.7% inter: 44.2% 59.6% 16.2%\n-[Information] [10.03.2015 15:47:59] x264 [info]: i16 v,h,dc,p: 23% 23% 13% 41%\n-[Information] [10.03.2015 15:47:59] x264 [info]: i8 v,h,dc,ddl,ddr,vr,hd,vl,hu: 14% 10%  6%  9% 13% 13% 13% 11% 12%\n-[Information] [10.03.2015 15:47:59] x264 [info]: i4 v,h,dc,ddl,ddr,vr,hd,vl,hu: 16% 16%  4%  7% 12% 12% 12% 10% 12%\n-[Information] [10.03.2015 15:47:59] x264 [info]: i8c dc,h,v,p: 38% 28% 16% 18%\n-[Information] [10.03.2015 15:47:59] x264 [info]: Weighted P-Frames: Y:13.8% UV:5.4%\n-[Information] [10.03.2015 15:47:59] x264 [info]: ref P L0: 29.4% 10.1% 16.4%  7.7%  7.2%  4.9%  5.0%  2.9%  3.0%  2.3%  2.4%  1.9%  2.1%  1.6%  1.8%  1.3%\n-[Information] [10.03.2015 15:47:59] x264 [info]: ref B L0: 71.6%  9.9%  4.4%  3.0%  2.0%  2.0%  1.5%  1.1%  0.9%  0.9%  0.7%  0.8%  0.6%  0.5%  0.2%\n-[Information] [10.03.2015 15:47:59] x264 [info]: ref B L1: 95.1%  4.9%\n-[Information] [10.03.2015 15:47:59] x264 [info]: kb/s:2393.90\n-[Information] [10.03.2015 15:47:59] encoded 114675 frames, 5.90 fps, 2393.90 kb/s\n\nMediaInfo:\nGeneral\nUnique ID                                : 237472475910794032075503677469521677689 (0xB2A78904FE36B74F840FAAC614810D79)\nFormat                                   : Matroska\nFormat version                           : Version 4 / Version 2\nFile size                                : 1.45 GiB\nDuration                                 : 1h 16mn\nOverall bit rate                         : 2 713 Kbps\nEncoded date                             : UTC 2015-03-10 13:58:30\nWriting application                      : mkvmerge v7.7.0 ('Six Voices') 64bit built on Feb 28 2015 23:39:33\nWriting library                          : libebml v1.3.1 + libmatroska v1.4.2\n_STATISTICS_WRITING_APP                  : mkvmerge v7.7.0 ('Six Voices') 64bit built on Feb 28 2015 23:39:33\n_STATISTICS_WRITING_DATE_UTC             : 2015-03-10 13:58:30\n_STATISTICS_TAGS                         : BPS DURATION NUMBER_OF_FRAMES NUMBER_OF_BYTES\nDURATION                                 : 01:15:47.584000000\nNUMBER_OF_FRAMES                         : 142112\nNUMBER_OF_BYTES                          : 72761344\n\nVideo\nID                                       : 1\nFormat                                   : AVC\nFormat/Info                              : Advanced Video Codec\nFormat profile                           : &lt;a class=&quot;__cf_email__&quot; href=&quot;/cdn-cgi/l/email-protection&quot; data-cfemail=&quot;89c1e0eee1c9c5bda7b8&quot;&gt;[email&amp;#160;protected]&lt;/a&gt;&lt;script cf-hash='f9e31' type=&quot;text/javascript&quot;&gt;\n/* &lt;![CDATA[ */!function(){try{var t=&quot;currentScript&quot;in document?document.currentScript:function(){for(var t=document.getElementsByTagName(&quot;script&quot;),e=t.length;e--;)if(t[e].getAttribute(&quot;cf-hash&quot;))return t[e]}();if(t&amp;&amp;t.previousSibling){var e,r,n,i,c=t.previousSibling,a=c.getAttribute(&quot;data-cfemail&quot;);if(a){for(e=&quot;&quot;,r=parseInt(a.substr(0,2),16),n=2;a.length-n;n+=2)i=parseInt(a.substr(n,2),16)^r,e+=String.fromCharCode(i);e=document.createTextNode(e),c.parentNode.replaceChild(e,c)}}}catch(u){}}();/* ]]&gt; */&lt;/script&gt;\nFormat settings, CABAC                   : Yes\nFormat settings, ReFrames                : 16 frames\nCodec ID                                 : V_MPEG4/ISO/AVC\nDuration                                 : 1h 16mn\nBit rate                                 : 2 394 Kbps\nWidth                                    : 680 pixels\nHeight                                   : 440 pixels\nDisplay aspect ratio                     : 1.686\nFrame rate mode                          : Constant\nFrame rate                               : 25.000 fps\nColor space                              : YUV\nChroma subsampling                       : 4:2:0\nBit depth                                : 8 bits\nScan type                                : Progressive\nBits/(Pixel*Frame)                       : 0.320\nStream size                              : 1.25 GiB (86%)\nWriting library                          : x264 core 142 r2431 ac76440\nEncoding settings                        : cabac=1 / ref=16 / deblock=1:0:0 / analyse=0x3:0x133 / me=umh / subme=10 / psy=1 / psy_rd=1.00:0.00 / mixed_ref=1 / me_range=24 / chroma_me=1 / trellis=2 / 8x8dct=1 / cqm=0 / deadzone=21,11 / fast_pskip=1 / chroma_qp_offset=-2 / threads=6 / lookahead_threads=1 / sliced_threads=0 / nr=0 / decimate=1 / interlaced=0 / bluray_compat=0 / constrained_intra=0 / bframes=8 / b_pyramid=2 / b_adapt=2 / b_bias=0 / direct=3 / weightb=1 / open_gop=0 / weightp=2 / keyint=250 / keyint_min=25 / scenecut=40 / intra_refresh=0 / rc_lookahead=60 / rc=2pass / mbtree=1 / bitrate=2394 / ratetol=1.0 / qcomp=0.60 / qpmin=0 / qpmax=69 / qpstep=4 / cplxblur=20.0 / qblur=0.5 / vbv_maxrate=62500 / vbv_bufsize=78125 / nal_hrd=none / filler=0 / ip_ratio=1.40 / aq=1:1.00\nDefault                                  : Yes\nForced                                   : No\n\nAudio #1\nID                                       : 2\nFormat                                   : AC-3\nFormat/Info                              : Audio Coding 3\nMode extension                           : CM (complete main)\nFormat settings, Endianness              : Big\nCodec ID                                 : A_AC3\nDuration                                 : 1h 16mn\nBit rate mode                            : Constant\nBit rate                                 : 192 Kbps\nChannel(s)                               : 2 channels\nChannel positions                        : Front: L R\nSampling rate                            : 48.0 KHz\nBit depth                                : 16 bits\nCompression mode                         : Lossy\nStream size                              : 105 MiB (7%)\nDefault                                  : Yes\nForced                                   : No\n\nAudio #2\nID                                       : 3\nFormat                                   : AC-3\nFormat/Info                              : Audio Coding 3\nMode extension                           : CM (complete main)\nFormat settings, Endianness              : Big\nCodec ID                                 : A_AC3\nDuration                                 : 1h 16mn\nBit rate mode                            : Constant\nBit rate                                 : 128 Kbps\nChannel(s)                               : 2 channels\nChannel positions                        : Front: L R\nSampling rate                            : 48.0 KHz\nBit depth                                : 16 bits\nCompression mode                         : Lossy\nStream size                              : 70.0 MiB (5%)\nDefault                                  : No\nForced                                   : No\n\n\n\nScreens: &lt;a href=&quot;\nhttp://i6.imageban.ru/out/2015/03/11/86e47bb8438dd9884062fbf1dc79ae8c.jpg&quot; rel=&quot;nofollow&quot; target=&quot;_NEW&quot;&gt;\nhttp://i6.imageban.ru/out/2015/03/11/86e47bb8438dd9884062fbf1dc79ae8c.jpg&lt;/a&gt; &lt;a href=&quot;\nhttp://i1.imageban.ru/out/2015/03/11/43a272a170afb708ce3cc55d4b4df523.jpg&quot; rel=&quot;nofollow&quot; target=&quot;_NEW&quot;&gt;\nhttp://i1.imageban.ru/out/2015/03/11/43a272a170afb708ce3cc55d4b4df523.jpg&lt;/a&gt; &lt;a href=&quot;\nhttp://i1.imageban.ru/out/2015/03/11/a609dc3c047d256497bf69bb15e7d662.jpg&quot; rel=&quot;nofollow&quot; target=&quot;_NEW&quot;&gt;\nhttp://i1.imageban.ru/out/2015/03/11/a609dc3c047d256497bf69bb15e7d662.jpg&lt;/a&gt; &lt;a href=&quot;\nhttp://i6.imageban.ru/out/2015/03/11/5afb1383cf5de14dfadd8ed31754c934.jpg&quot; rel=&quot;nofollow&quot; target=&quot;_NEW&quot;&gt;\nhttp://i6.imageban.ru/out/2015/03/11/5afb1383cf5de14dfadd8ed31754c934.jpg&lt;/a&gt; &lt;a href=&quot;\nhttp://i2.imageban.ru/out/2015/03/11/db8f175fa3ab731e453ba35abd6f9876.jpg&quot; rel=&quot;nofollow&quot; target=&quot;_NEW&quot;&gt;\nhttp://i2.imageban.ru/out/2015/03/11/db8f175fa3ab731e453ba35abd6f9876.jpg&lt;/a&gt; &lt;a href=&quot;\nhttp://i6.imageban.ru/out/2015/03/11/699f40ad922123e54476ecac2d05b5bd.jpg&quot; rel=&quot;nofollow&quot; target=&quot;_NEW&quot;&gt;\nhttp://i6.imageban.ru/out/2015/03/11/699f40ad922123e54476ecac2d05b5bd.jpg&lt;/a&gt; &lt;a href=&quot;\nhttp://i4.imageban.ru/out/2015/03/11/13e23b5c906b6cf8cd785ac8072c3977.jpg&quot; rel=&quot;nofollow&quot; target=&quot;_NEW&quot;&gt;\nhttp://i4.imageban.ru/out/2015/03/11/13e23b5c906b6cf8cd785ac8072c3977.jpg&lt;/a&gt; &lt;a href=&quot;\nhttp://i5.imageban.ru/out/2015/03/11/cd5169c7bb0f76045c73383ee31d569f.jpg&quot; rel=&quot;nofollow&quot; target=&quot;_NEW&quot;&gt;\nhttp://i5.imageban.ru/out/2015/03/11/cd5169c7bb0f76045c73383ee31d569f.jpg&lt;/a&gt;","torrent":{"xt":"urn:btih:50d7fc435eb834fa38b3fc057552240b14f0358b","amp;dn":"Die+Bett-Hostessen+%281973%29+DVDRip-AVC","amp;tr":["udp%3A%2F%2Ftracker.openbittorrent.com%3A80","udp%3A%2F%2Fopen.demonii.com%3A1337","udp%3A%2F%2Ftracker.coppersurfer.tk%3A6969","udp%3A%2F%2Fexodus.desync.com%3A6969"],"infoHash":"50d7fc435eb834fa38b3fc057552240b14f0358b","infoHashBuffer":{"type":"Buffer","data":[80,215,252,67,94,184,52,250,56,179,252,5,117,82,36,11,20,240,53,139]},"announce":[],"urlList":[]}}